HIERARCHY
ROOT root
{
	OFFSET	0	13.1	24.9
	CHANNELS 6  Xposition Yposition Zposition Xrotation Yrotation Zrotation
	JOINT spine_1
	{
		OFFSET	0	9.99999	0
		CHANNELS 3  Xrotation Yrotation Zrotation
		JOINT spine_2
		{
			OFFSET	0	112	-10
			CHANNELS 3  Xrotation Yrotation Zrotation
			JOINT spine_3
			{
				OFFSET	0	206.5	19.3
				CHANNELS 3  Xrotation Yrotation Zrotation
				JOINT spine_4
				{
					OFFSET	0	110.4	14.6
					CHANNELS 3  Xrotation Yrotation Zrotation
					JOINT neck_1
					{
						OFFSET	0	71.8	-50.3
						CHANNELS 3  Xrotation Yrotation Zrotation
						JOINT neck_2
						{
							OFFSET	0	86.2	-25.8
							CHANNELS 3  Xrotation Yrotation Zrotation
							JOINT head_ee
							{
								OFFSET	0	179.8	-8.7
								CHANNELS 3  Xrotation Yrotation Zrotation
								End Site
								{
									OFFSET	1	0	0
								}
							}
						}
					}
					JOINT left_clavicle
					{
						OFFSET	-43.2	22.4	-70.8
						CHANNELS 3  Xrotation Yrotation Zrotation
						JOINT left_shoulder
						{
							OFFSET	-93.9	-5.79999	48.7
							CHANNELS 3  Xrotation Yrotation Zrotation
							JOINT left_elbow
							{
								OFFSET	-291.4	-30.8	15.2
								CHANNELS 3  Xrotation Yrotation Zrotation
								JOINT left_lowarm_twist
								{
									OFFSET	-110.7	-3.89999	13.6
									CHANNELS 3  Xrotation Yrotation Zrotation
									JOINT left_hand
									{
										OFFSET	-110.7	-3.89999	13.6
										CHANNELS 3  Xrotation Yrotation Zrotation
										JOINT left_ee
										{
											OFFSET	-80.8	-5.10001	12.1
											CHANNELS 3  Xrotation Yrotation Zrotation
											End Site
											{
												OFFSET	1	0	0
											}
										}
									}
								}
							}
						}
					}
					JOINT right_clavicle
					{
						OFFSET	43.2	22.4	-70.8
						CHANNELS 3  Xrotation Yrotation Zrotation
						JOINT right_shoulder
						{
							OFFSET	93.9	-5.79999	48.7
							CHANNELS 3  Xrotation Yrotation Zrotation
							JOINT right_elbow
							{
								OFFSET	291.4	-30.8	15.2
								CHANNELS 3  Xrotation Yrotation Zrotation
								JOINT right_lowarm_twist
								{
									OFFSET	110.7	-3.89999	13.6
									CHANNELS 3  Xrotation Yrotation Zrotation
									JOINT right_hand
									{
										OFFSET	110.7	-3.89999	13.6
										CHANNELS 3  Xrotation Yrotation Zrotation
										JOINT right_ee
										{
											OFFSET	80.8	-5.10001	12.1
											CHANNELS 3  Xrotation Yrotation Zrotation
											End Site
											{
												OFFSET	1	0	0
											}
										}
									}
								}
							}
						}
					}
				}
			}
		}
	}
	JOINT left_hip
	{
		OFFSET	-82.8	-127.5	0.300001
		CHANNELS 3  Xrotation Yrotation Zrotation
		JOINT left_knee
		{
			OFFSET	-28.2	-396.7	2.2
			CHANNELS 3  Xrotation Yrotation Zrotation
			JOINT left_ankle
			{
				OFFSET	-11.7	-411.3	35.4
				CHANNELS 3  Xrotation Yrotation Zrotation
				JOINT left_toes
				{
					OFFSET	0	-60	-88.6
					CHANNELS 3  Xrotation Yrotation Zrotation
					JOINT left_foot_ee
					{
						OFFSET	-22.5	-16.5	-42.2
						CHANNELS 3  Xrotation Yrotation Zrotation
						End Site
						{
							OFFSET	1	0	0
						}
					}
				}
			}
		}
	}
	JOINT right_hip
	{
		OFFSET	82.8	-127.5	0.300001
		CHANNELS 3  Xrotation Yrotation Zrotation
		JOINT right_knee
		{
			OFFSET	28.2	-396.7	2.2
			CHANNELS 3  Xrotation Yrotation Zrotation
			JOINT right_ankle
			{
				OFFSET	11.7	-411.3	35.4
				CHANNELS 3  Xrotation Yrotation Zrotation
				JOINT right_toes
				{
					OFFSET	0	-60	-88.6
					CHANNELS 3  Xrotation Yrotation Zrotation
					JOINT right_foot_ee
					{
						OFFSET	22.5	-16.5	-42.2
						CHANNELS 3  Xrotation Yrotation Zrotation
						End Site
						{
							OFFSET	1	0	0
						}
					}
				}
			}
		}
	}
}
MOTION
Frames: 14
Frame Time: 0.02
3177.02 653.055 -1669.29 15.4909832828 73.5796550881 -8.84568419229 -1.75611 -0.0821089 -0.637209 -1.75589 -0.0413961 -0.641142 -1.75521 0.113706 -0.632335 -1.75576 0.012416 -0.642357 -12.027 2.32716 1.05844 -12.0314 3.73171 1.67142 -0.0 0.0 -0.0 -1.64278 15.4159 -0.802897 -24.757 -25.6032 78.3573 0.195252 -5.52473 0.00942082 -81.6631 -8.03242 5.25426 3.62391 -0.35881 24.8803 -0.0 0.0 -0.0 4.05999 22.1058 -6.20894 31.9977 20.2545 -69.0624 2.59916 52.1558 -1.27224 60.8246 1.84789 7.18347 1.29611 -7.04388 -11.4506 0.0 0.0 0.0 26.1939 16.2654 -13.4156 1.42598 -0.0613415 -0.210215 23.4205 24.353 -3.29834 -21.9525 0.0 0.0 -0.0 0.0 -0.0 -27.2295 27.8864 -7.75394 1.06909 0.0454978 0.157744 27.9395 -14.8677 3.70441 12.4238 -0.0 -0.0 0.0 0.0 0.0 
3134.86906843 648.703 -1660.23466032 11.9290489037 72.1805321135 -5.22556150726 -1.51651 0.0137959 -0.484131 -1.51638 0.0445741 -0.482272 -1.51667 0.157125 -0.458133 -1.51695 0.0828007 -0.477198 -12.1202 3.03591 1.97879 -12.1204 4.48843 2.75815 -0.0 0.0 -0.0 -1.2673 15.6872 -0.164229 -23.9635 -25.1459 78.755 0.235772 -6.66181 0.0137222 -80.4072 -7.87347 5.27407 4.39138 -5.73008 28.3218 -0.0 0.0 -0.0 3.26043 22.8471 -4.40657 29.0993 22.481 -68.9686 2.7496 53.705 -1.39228 60.3288 1.80329 7.13818 1.45436 -8.30703 -12.9763 0.0 0.0 0.0 25.7084 16.4542 -12.8297 0.411957 -0.0171826 -0.0608825 20.0856 27.0903 -2.91613 -22.1079 0.0 0.0 -0.0 0.0 -0.0 -27.5175 28.3303 -6.7744 0.153395 0.00634703 0.0226841 27.2285 -17.0681 3.64701 11.6203 -0.0 -0.0 0.0 0.0 0.0 
3083.10766863 658.1 -1650.84628438 10.9789045629 71.3654603891 -4.65048370749 -1.55294 -0.0633357 -0.606916 -1.55274 -0.0245884 -0.609716 -1.5523 0.120362 -0.598224 -1.5528 0.0243753 -0.609724 -13.7573 4.1558 4.76478 -13.7108 4.99243 5.81253 -0.0 0.0 -0.0 -0.887075 15.8778 0.464899 -21.5123 -25.6913 78.1926 0.330495 -9.29804 0.0268757 -79.8343 -7.80082 5.28194 4.62594 -7.52954 29.2649 -0.0 0.0 -0.0 2.40814 22.9556 -2.55208 24.7319 23.6589 -68.9208 2.73175 53.527 -1.37792 59.4464 1.72489 7.05663 1.52131 -9.09026 -13.7094 0.0 0.0 0.0 24.5462 17.0667 -11.6908 -4.94772 0.171858 0.739645 23.0211 26.1532 -3.28188 -21.3089 0.0 0.0 -0.0 0.0 -0.0 -27.6171 29.0265 -4.54336 -2.48762 -0.0944022 -0.370067 25.9173 -19.4507 3.52464 10.3734 -0.0 -0.0 0.0 0.0 0.0 
3065.81307555 661.005 -1648.08033525 10.7774550984 71.4276117765 -4.513569981 -1.48182 -0.155815 -0.741464 -1.48152 -0.108319 -0.749875 -1.4798 0.0712106 -0.754304 -1.48059 -0.0488079 -0.756084 -14.7723 4.27551 5.31206 -14.7124 4.99636 6.41408 -0.0 0.0 -0.0 -0.611767 16.5481 0.987114 -19.5631 -25.461 77.4429 0.373428 -10.4806 0.0342497 -79.2582 -7.72765 5.28912 4.71296 -7.89314 29.7586 -0.0 0.0 -0.0 2.22258 23.6046 -2.08375 22.5164 24.1476 -68.7065 2.59332 52.0934 -1.26763 58.9182 1.67857 7.00724 1.50465 -9.38508 -13.7061 0.0 0.0 0.0 23.8689 17.0463 -11.0012 -6.36727 0.209305 0.954273 21.4748 26.4365 -3.08729 -21.6615 0.0 0.0 -0.0 0.0 -0.0 -27.0355 28.2246 -4.1394 -2.65204 -0.100073 -0.394662 25.51 -20.0762 3.48502 10.1973 -0.0 -0.0 0.0 0.0 0.0 
3022.89650928 670.209 -1642.04692139 12.4582617308 72.1884245837 -6.70657604171 -1.13091 -0.257054 -0.872504 -1.1305 -0.201016 -0.887091 -1.12698 0.00780217 -0.909546 -1.12811 -0.135936 -0.899365 -17.3564 4.05211 6.31588 -17.2623 4.28888 7.40153 -0.0 0.0 -0.0 0.894349 16.8848 3.36862 -17.2977 -29.0631 73.4611 0.352018 -9.89193 0.0304632 -80.5154 -7.88719 5.27251 4.15349 -4.47346 27.086 -0.0 0.0 -0.0 2.21532 24.707 -1.95368 15.722 23.2264 -68.0861 2.33005 49.0883 -1.06415 59.6306 1.74115 7.07375 1.05681 -9.51492 -10.8006 0.0 0.0 0.0 20.1421 16.2654 -8.77177 -10.4758 0.287576 1.57974 26.8182 20.1632 -3.64149 -20.3712 0.0 0.0 -0.0 0.0 -0.0 -20.4591 25.4334 -3.96416 -16.7317 -0.320233 -2.53857 26.5939 -21.1408 3.6306 11.7397 -0.0 -0.0 0.0 0.0 0.0 
3004.75004714 674.145 -1639.85321618 9.73167772938 72.8575198537 -4.05183171972 -0.999712 -0.355236 -0.862267 -0.999348 -0.29965 -0.883122 -0.994299 -0.0912751 -0.928093 -0.995423 -0.236699 -0.902034 -16.6027 4.05393 5.65878 -16.5322 4.57275 6.75154 -0.0 0.0 -0.0 1.62092 17.1866 4.51885 -16.4254 -31.4257 70.7156 0.418782 -11.7201 0.042982 -82.8534 -8.18258 5.23224 3.63047 -0.0809465 25.0418 -0.0 0.0 -0.0 1.6686 21.9093 -1.06147 12.6921 22.9759 -68.8214 2.46457 50.6717 -1.16702 58.8292 1.67081 6.99888 1.03473 -8.89952 -10.4243 0.0 0.0 0.0 18.8189 16.8503 -7.52151 -7.75412 0.24074 1.16477 28.7255 15.992 -3.80458 -19.9323 0.0 0.0 -0.0 0.0 -0.0 -16.6193 24.3351 -4.28001 -23.0202 -0.247559 -3.50025 23.6022 -18.6871 3.23628 10.8915 -0.0 -0.0 0.0 0.0 0.0 
3004.73903962 674.145 -1639.91770711 9.71993845158 72.8363795775 -4.03954597661 -0.999712 -0.355236 -0.862267 -0.999348 -0.29965 -0.883122 -0.994299 -0.0912751 -0.928093 -0.995423 -0.236699 -0.902034 -16.6027 4.05393 5.65878 -16.5322 4.57275 6.75154 -0.0 0.0 -0.0 1.62092 17.1866 4.51885 -16.4254 -31.4257 70.7156 0.418782 -11.7201 0.042982 -82.8534 -8.18258 5.23224 3.63047 -0.0809465 25.0418 -0.0 0.0 -0.0 1.6686 21.9093 -1.06147 12.6921 22.9759 -68.8214 2.46457 50.6717 -1.16702 58.8292 1.67081 6.99888 1.03473 -8.89952 -10.4243 0.0 0.0 0.0 18.8189 16.8503 -7.52151 -7.75412 0.24074 1.16477 28.7255 15.992 -3.80458 -19.9323 0.0 0.0 -0.0 0.0 -0.0 -16.6193 24.3351 -4.28001 -23.0202 -0.247559 -3.50025 23.6022 -18.6871 3.23628 10.8915 -0.0 -0.0 0.0 0.0 0.0 
3004.7011986 674.145 -1640.14053028 9.67960888391 72.7633423049 -3.99732834537 -0.999712 -0.355236 -0.862267 -0.999348 -0.29965 -0.883122 -0.994299 -0.0912751 -0.928093 -0.995423 -0.236699 -0.902034 -16.6027 4.05393 5.65878 -16.5322 4.57275 6.75154 -0.0 0.0 -0.0 1.62092 17.1866 4.51885 -16.4254 -31.4257 70.7156 0.418782 -11.7201 0.042982 -82.8534 -8.18258 5.23224 3.63047 -0.0809465 25.0418 -0.0 0.0 -0.0 1.6686 21.9093 -1.06147 12.6921 22.9759 -68.8214 2.46457 50.6717 -1.16702 58.8292 1.67081 6.99888 1.03473 -8.89952 -10.4243 0.0 0.0 0.0 18.8189 16.8503 -7.52151 -7.75412 0.24074 1.16477 28.7255 15.992 -3.80458 -19.9323 0.0 0.0 -0.0 0.0 -0.0 -16.6193 24.3351 -4.28001 -23.0202 -0.247559 -3.50025 23.6022 -18.6871 3.23628 10.8915 -0.0 -0.0 0.0 0.0 0.0 
2962.88573215 682.265 -1648.47596796 10.9483441629 71.518419968 -4.96768766309 -1.01966 -0.49168 -1.15352 -1.01902 -0.417287 -1.18247 -1.00962 -0.137554 -1.24636 -1.01163 -0.332653 -1.209 -18.3381 4.05817 5.70191 -18.2717 4.74962 6.88368 -0.0 0.0 -0.0 2.54719 16.702 5.93128 -12.0117 -33.8351 68.8851 0.387199 -10.8581 0.0367991 -82.8774 -8.1856 5.23176 3.15556 5.17373 23.5875 -0.0 0.0 -0.0 1.38509 19.7459 -0.676437 7.66055 22.098 -69.6991 2.09765 46.0933 -0.892499 56.2164 1.4489 6.74814 0.747486 -10.6119 -9.19932 0.0 0.0 0.0 13.8587 17.0462 -5.90582 -5.59931 0.189707 0.838048 28.6971 12.6184 -3.77013 -21.2646 0.0 0.0 -0.0 0.0 -0.0 -10.3072 20.8875 -5.73897 -35.1961 0.189761 -5.31417 16.2228 -19.3178 2.30109 10.5797 -0.0 -0.0 0.0 0.0 0.0 
2962.98551638 682.265 -1647.47375797 11.1030007907 71.7816919994 -5.13062922017 -1.01966 -0.49168 -1.15352 -1.01902 -0.417287 -1.18247 -1.00962 -0.137554 -1.24636 -1.01163 -0.332653 -1.209 -18.3381 4.05817 5.70191 -18.2717 4.74962 6.88368 -0.0 0.0 -0.0 2.54719 16.702 5.93128 -12.0117 -33.8351 68.8851 0.387199 -10.8581 0.0367991 -82.8774 -8.1856 5.23176 3.15556 5.17373 23.5875 -0.0 0.0 -0.0 1.38509 19.7459 -0.676437 7.66055 22.098 -69.6991 2.09765 46.0933 -0.892499 56.2164 1.4489 6.74814 0.747486 -10.6119 -9.19932 0.0 0.0 0.0 13.8587 17.0462 -5.90582 -5.59931 0.189707 0.838048 28.6971 12.6184 -3.77013 -21.2646 0.0 0.0 -0.0 0.0 -0.0 -10.3072 20.8875 -5.73897 -35.1961 0.189761 -5.31417 16.2228 -19.3178 2.30109 10.5797 -0.0 -0.0 0.0 0.0 0.0 
2943.62598843 683.046 -1651.81246904 10.6498752621 71.3990828466 -4.02154423234 -0.888066 -0.55189 -1.41241 -0.887074 -0.460906 -1.44466 -0.874357 -0.124014 -1.51131 -0.877362 -0.361114 -1.47277 -18.4098 4.61247 5.753 -18.3549 5.79791 7.15035 -0.0 0.0 -0.0 3.18903 15.993 6.915 -10.4247 -35.0839 67.4819 0.455143 -12.7059 0.0506744 -83.6013 -8.27665 5.21679 2.95084 6.5577 22.6186 -0.0 0.0 -0.0 1.02762 18.147 -0.0779972 5.57023 22.8736 -71.028 1.97982 44.4381 -0.808783 55.3543 1.37822 6.66323 0.708824 -9.45569 -8.50657 0.0 0.0 0.0 12.9011 17.016 -6.31271 -5.81187 0.195288 0.870192 30.3321 10.0563 -3.93277 -20.3119 0.0 0.0 -0.0 0.0 -0.0 -7.92878 18.2208 -6.30579 -39.1925 0.416195 -5.88492 12.0033 -19.4718 1.73 10.0709 -0.0 -0.0 0.0 0.0 0.0 
2926.28131866 684.299 -1650.78463586 13.0861621084 71.7543561924 -6.44139096032 -0.845166 -0.652873 -1.60727 -0.843896 -0.54929 -1.64554 -0.826703 -0.166405 -1.72678 -0.830598 -0.436991 -1.67885 -16.8595 4.99459 5.8768 -16.8013 6.28661 7.30766 -0.0 0.0 -0.0 4.2216 15.3965 8.55602 -8.29594 -36.1185 66.0818 0.493267 -13.7314 0.0593925 -84.2473 -8.35771 5.20245 2.70904 8.6895 21.6566 -0.0 0.0 -0.0 0.513994 17.4192 0.943337 2.86981 23.0813 -71.3104 1.91718 43.5181 -0.765289 54.7559 1.32993 6.60368 0.695822 -9.46835 -8.42688 0.0 0.0 0.0 11.0372 17.4357 -5.96476 -5.77918 0.194437 0.865247 31.5901 9.67035 -4.06411 -20.1553 0.0 0.0 -0.0 0.0 -0.0 -6.50527 17.4763 -6.59194 -42.0303 0.600963 -6.28014 11.7451 -18.9413 1.69112 10.068 -0.0 -0.0 0.0 0.0 0.0 
2911.58930962 690.741 -1646.01678348 15.2237624714 72.7712357156 -8.18879417654 -0.684641 -0.716375 -1.80175 -0.683035 -0.600294 -1.84366 -0.662041 -0.177276 -1.93078 -0.666923 -0.479928 -1.87858 -18.4827 5.24581 6.84414 -18.3981 6.44328 8.41427 -0.0 0.0 -0.0 4.58685 15.0876 9.14673 -6.72811 -37.0432 65.3587 0.638159 -17.5432 0.0984691 -84.8803 -8.43697 5.18751 2.46383 10.8565 20.689 -0.0 0.0 -0.0 0.270823 15.85 1.28791 0.574386 22.8995 -72.0552 1.74161 40.7822 -0.647435 54.1251 1.2797 6.54038 0.624519 -9.34465 -7.91563 0.0 0.0 0.0 9.21602 17.5195 -6.0587 -4.67464 0.164045 0.698464 31.9999 7.81361 -4.1003 -18.9536 0.0 0.0 -0.0 0.0 -0.0 -2.75319 15.673 -8.09449 -44.6628 0.789738 -6.63833 7.78544 -17.9322 1.13169 8.73995 -0.0 -0.0 0.0 0.0 0.0 
2896.59147349 693.697 -1640.35393431 18.6611587486 73.4965294201 -11.2369257893 -0.550541 -0.601073 -2.03583 -0.548358 -0.470338 -2.06993 -0.529508 -0.0052768 -2.12267 -0.535634 -0.340372 -2.09522 -18.8706 5.50493 6.89624 -18.7943 6.96664 8.59426 -0.0 0.0 -0.0 4.48669 13.9266 8.98111 -5.04103 -37.5878 64.8981 0.801852 -21.6636 0.153425 -85.1313 -8.46834 5.18134 2.05913 12.769 18.5791 -0.0 0.0 -0.0 -0.244256 14.2144 2.1945 -1.15469 22.9267 -72.533 1.59119 38.2433 -0.551703 53.7158 1.24748 6.49901 0.634219 -8.47605 -7.64122 0.0 0.0 0.0 7.35188 18.906 -6.06288 -4.46026 0.157774 0.66616 30.453 7.76249 -3.93797 -17.2024 0.0 0.0 -0.0 0.0 -0.0 -0.0975545 14.4034 -8.20341 -44.9872 0.81414 -6.68187 5.17608 -14.9853 0.75246 7.57737 -0.0 -0.0 0.0 0.0 0.0 
